<?xml version="1.0" standalone="no"?>
<!DOCTYPE svg PUBLIC "-//W3C//DTD SVG 20010904//EN"
 "http://www.w3.org/TR/2001/REC-SVG-20010904/DTD/svg10.dtd">
<svg version="1.0" xmlns="http://www.w3.org/2000/svg"
 width="16.000000pt" height="16.000000pt" viewBox="0 0 16.000000 16.000000"
 preserveAspectRatio="xMidYMid meet">
<metadata>
Created by potrace 1.11, written by Peter Selinger 2001-2013
</metadata>
<g transform="translate(0.000000,16.000000) scale(0.005970,-0.005970)"
fill="#000000" stroke="none">
<path d="M645 2660 c-187 -9 -276 -35 -384 -110 -120 -85 -193 -201 -228 -362
-16 -76 -18 -150 -18 -848 0 -701 2 -772 18 -850 48 -222 185 -377 391 -442
77 -24 297 -37 654 -38 l262 0 0 260 0 260 663 3 662 2 -662 3 -663 2 0 260 0
260 668 3 667 2 -667 3 -668 2 0 260 0 260 663 3 662 2 -662 3 -663 2 0 535 0
535 -272 -2 c-150 -1 -340 -4 -423 -8z m216 -756 c48 -24 59 -65 59 -219 0
-226 -10 -235 -246 -235 l-156 0 -34 34 -34 34 0 167 0 167 34 34 34 34 156 0
c123 0 164 -3 187 -16z m-351 -624 c0 -6 65 -10 175 -10 110 0 175 4 175 10 0
6 7 10 15 10 12 0 15 -15 15 -75 0 -60 -3 -75 -15 -75 -8 0 -15 6 -15 14 0 12
-24 15 -120 18 -66 2 -120 1 -120 -2 0 -3 60 -37 132 -75 72 -39 133 -75 135
-80 3 -10 -26 -27 -190 -112 -48 -25 -87 -46 -85 -47 2 0 58 0 126 2 98 3 122
6 122 18 0 8 7 14 15 14 12 0 15 -15 15 -75 0 -57 -3 -75 -14 -75 -8 0 -16 7
-20 15 -4 13 -33 15 -172 15 -144 0 -168 -2 -179 -17 -7 -9 -17 -13 -23 -9
-16 10 -15 108 1 130 7 10 66 46 131 81 l118 62 -116 62 c-63 34 -122 71 -131
83 -9 14 -15 44 -15 75 0 46 3 53 20 53 11 0 20 -4 20 -10z"/>
</g>
</svg>
